<svg version="1.1" preserveAspectRatio="none" xmlns="http://www.w3.org/2000/svg" width="500" height="500" viewBox="0 0 500 500"><rect width="100%" height="100%" fill="#FFFFFF" fill-opacity="1"/><svg viewBox="140.1809 200.9943 490.7956 60" width="333" height="40.70941141281625" x="83.5px" y="229.6453px" xmlns="http://www.w3.org/2000/svg" xmlns:xlink="http://www.w3.org/1999/xlink" preserveAspectRatio="none"><defs></defs><style>.companyName {fill:#182145;fill-opacity:1;}.icon1 {fill:#182145;fill-opacity:1;}.icon2 {fill:#E35B34;fill-opacity:1;}.icon3 {fill:#E3D454;fill-opacity:1;}.icon3-str {stroke:#E3D454;stroke-opacity:1;}</style><g opacity="1" transform="rotate(0 140.1809 200.9943)">
<svg width="98.4958" height="60" x="140.1809" y="200.9943" version="1.1" preserveAspectRatio="none" viewBox="56.50043869018555 73.50251007080078 87.00054931640625 52.99751281738281">
  <g transform="matrix(1 0 0 1 0 0)"><g><path d="M143.485 75.337a1.893 1.893 0 0 0-.121-.593c-.02-.056-.02-.117-.045-.171a1.878 1.878 0 0 0-.465-.625c-.006-.005-.013-.006-.019-.01-.004-.003-.005-.009-.009-.012-.037-.031-.087-.037-.126-.066a1.882 1.882 0 0 0-.568-.296c-.087-.026-.175-.021-.265-.034a1.875 1.875 0 0 0-.518-.017c-.035.005-.07-.01-.105-.004L118.516 77.8a1.895 1.895 0 0 0-1.514 2.215 1.91 1.91 0 0 0 2.222 1.509l17.297-3.266-25.282 28.661-21.034-15.94a1.9 1.9 0 0 0-2.526.202l-30.654 32.12a1.885 1.885 0 0 0 .067 2.676c.366.35.839.523 1.309.523a1.89 1.89 0 0 0 1.376-.589l29.483-30.89L110.35 111a1.903 1.903 0 0 0 2.578-.256l26.665-30.229-.371 17.866a1.899 1.899 0 0 0 1.861 1.934h.04a1.897 1.897 0 0 0 1.9-1.855l.478-23.05c0-.026-.015-.048-.016-.073z" data-color="1" class="icon1"></path></g></g>
</svg>
</g><g opacity="1" transform="rotate(0 258.6767 200.9943)">
<svg width="372.2998" height="60" x="258.6767" y="200.9943" version="1.1" preserveAspectRatio="none" viewBox="3.32 -28.48 179.68 28.96">
  <g transform="matrix(1 0 0 1 0 0)" class="companyName"><path id="id-D6z1nYkh7" d="M3.32 0L3.32-28L9.80-28L9.80 0L3.32 0Z M35.72-28L42.12-28L42.12 0L36.80 0L22.84-17L22.84 0L16.44 0L16.44-28L21.80-28L35.72-11L35.72-28Z M69.08-28L75.52-28L63.40 0L57 0L44.92-28L51.92-28L60.44-8L69.08-28Z M84.28-5.20L99.52-5.20L99.52 0L77.84 0L77.84-28L99.00-28L99.00-22.80L84.28-22.80L84.28-16.72L97.28-16.72L97.28-11.68L84.28-11.68L84.28-5.20Z M113.88 0.48Q110.56 0.48 107.46-0.42Q104.36-1.32 102.48-2.76L102.48-2.76L104.68-7.64Q106.48-6.32 108.96-5.52Q111.44-4.72 113.92-4.72L113.92-4.72Q116.68-4.72 118.00-5.54Q119.32-6.36 119.32-7.72L119.32-7.72Q119.32-8.72 118.54-9.38Q117.76-10.04 116.54-10.44Q115.32-10.84 113.24-11.32L113.24-11.32Q110.04-12.08 108.00-12.84Q105.96-13.60 104.50-15.28Q103.04-16.96 103.04-19.76L103.04-19.76Q103.04-22.20 104.36-24.18Q105.68-26.16 108.34-27.32Q111.00-28.48 114.84-28.48L114.84-28.48Q117.52-28.48 120.08-27.84Q122.64-27.20 124.56-26L124.56-26L122.56-21.08Q118.68-23.28 114.80-23.28L114.80-23.28Q112.08-23.28 110.78-22.40Q109.48-21.52 109.48-20.08L109.48-20.08Q109.48-18.64 110.98-17.94Q112.48-17.24 115.56-16.56L115.56-16.56Q118.76-15.80 120.80-15.04Q122.84-14.28 124.30-12.64Q125.76-11 125.76-8.20L125.76-8.20Q125.76-5.80 124.42-3.82Q123.08-1.84 120.40-0.68Q117.72 0.48 113.88 0.48L113.88 0.48Z M135.60 0L135.60-22.72L126.64-22.72L126.64-28L151.04-28L151.04-22.72L142.08-22.72L142.08 0L135.60 0Z M167.68 0.48Q163.32 0.48 159.82-1.40Q156.32-3.28 154.34-6.58Q152.36-9.88 152.36-14L152.36-14Q152.36-18.12 154.34-21.42Q156.32-24.72 159.82-26.60Q163.32-28.48 167.68-28.48L167.68-28.48Q172.04-28.48 175.52-26.60Q179.00-24.72 181.00-21.42Q183-18.12 183-14L183-14Q183-9.88 181.00-6.58Q179.00-3.28 175.52-1.40Q172.04 0.48 167.68 0.48L167.68 0.48ZM167.68-5.04Q170.16-5.04 172.16-6.18Q174.16-7.32 175.30-9.36Q176.44-11.40 176.44-14L176.44-14Q176.44-16.60 175.30-18.64Q174.16-20.68 172.16-21.82Q170.16-22.96 167.68-22.96L167.68-22.96Q165.20-22.96 163.20-21.82Q161.20-20.68 160.06-18.64Q158.92-16.60 158.92-14L158.92-14Q158.92-11.40 160.06-9.36Q161.20-7.32 163.20-6.18Q165.20-5.04 167.68-5.04L167.68-5.04Z"/></g>
</svg>
</g></svg></svg>